<svg width="512" height="512" viewBox="0 0 512 512" fill="none" xmlns="http://www.w3.org/2000/svg">
<rect width="512" height="512" fill="black"/>
<path fill-rule="evenodd" clip-rule="evenodd" d="M134.517 469.334L132.267 183.549L373.217 42.667L375.467 328.452L134.517 469.334ZM142.339 455.353L140.236 188.297L365.395 56.6481L367.497 323.704L142.339 455.353ZM145.487 370.344L160.02 344.366L226.633 384.055L212.099 410.033L360.989 322.978C338.177 309.386 315.225 295.787 292.476 282.233C276.535 308.339 247.132 319.168 225.676 306.384C204.22 293.601 198.609 261.909 212.546 234.608C189.795 221.053 166.907 207.34 144.097 193.749L145.487 370.344ZM205.514 413.883L220.75 386.649L160.785 350.921L145.549 378.155L146.105 448.62L205.514 413.883ZM146.742 189.021C169.549 202.61 192.537 216.212 215.265 229.753C231.208 203.66 260.606 192.835 282.055 205.615C303.504 218.395 309.12 250.078 295.193 277.376C317.919 290.917 340.829 304.662 363.636 318.251L362.246 141.656L347.713 167.634L281.101 127.945L295.634 101.967L146.742 189.021ZM362.182 133.845L346.946 161.079L286.981 125.351L302.217 98.1165L361.628 63.3802L362.182 133.845ZM218.516 231.691C233.192 207.857 260.109 197.998 279.764 209.709C299.42 221.42 304.605 250.406 291.942 275.439L260.276 256.572C260.928 253.554 259.977 250.569 257.673 249.197C255.369 247.824 252.389 248.466 250.182 250.558L218.516 231.691ZM289.227 280.293C274.553 304.139 247.627 314.004 227.969 302.292C208.311 290.579 203.124 261.581 215.801 236.544L247.462 255.409C246.803 258.434 247.752 261.429 250.06 262.804C252.369 264.179 255.356 263.53 257.565 261.428L289.227 280.293Z" fill="url(#paint0_linear_9_6)"/>
<defs>
<linearGradient id="paint0_linear_9_6" x1="132.267" y1="42.667" x2="375.467" y2="469.334" gradientUnits="userSpaceOnUse">
<stop stop-color="#A3FF4C"/>
<stop offset="1" stop-color="#62F4FF"/>
</linearGradient>
</defs>
</svg>
