<svg width="468" height="116" viewBox="0 0 468 116" fill="none" xmlns="http://www.w3.org/2000/svg">
<path fill-rule="evenodd" clip-rule="evenodd" d="M32.5274 108L32 41.0191L88.4726 8L89 74.9809L32.5274 108ZM34.3606 104.723L33.8679 42.132L86.6394 11.2768L87.1321 73.868L34.3606 104.723ZM35.0985 84.7994L38.5048 78.7108L54.117 88.0129L50.7108 94.1015L85.6068 73.6979C80.2603 70.5123 74.8808 67.325 69.5492 64.1483C65.8129 70.2668 58.9216 72.805 53.8928 69.8088C48.8641 66.8126 47.5489 59.3848 50.8154 52.9863C45.4832 49.8093 40.1187 46.5951 34.7727 43.4099L35.0985 84.7994ZM49.1673 95.0037L52.7383 88.6207L38.6841 80.2469L35.1131 86.6299L35.2433 103.145L49.1673 95.0037ZM35.3927 42.3018C40.7381 45.4867 46.1259 48.6745 51.4527 51.8484C55.1894 45.7328 62.0795 43.1956 67.1066 46.1909C72.1338 49.1862 73.4501 56.6119 70.1859 63.01C75.5123 66.1836 80.8818 69.4052 86.2273 72.5901L85.9015 31.2006L82.4952 37.2892L66.883 27.9871L70.2892 21.8985L35.3927 42.3018ZM85.8864 29.3697L82.3154 35.7527L68.2612 27.379L71.8322 20.996L85.7567 12.8547L85.8864 29.3697ZM52.2148 52.3024C55.6544 46.7165 61.963 44.4056 66.5698 47.1504C71.1766 49.8953 72.3917 56.6889 69.4239 62.556L62.0022 58.134C62.155 57.4265 61.932 56.7271 61.3921 56.4054C60.8522 56.0837 60.1537 56.2341 59.6364 56.7244L52.2148 52.3024ZM68.7875 63.6935C65.3483 69.2825 59.0375 71.5947 54.4302 68.8495C49.8229 66.1044 48.6073 59.3079 51.5783 53.44L58.9989 57.8613C58.8445 58.5705 59.0669 59.2723 59.6079 59.5946C60.1489 59.9169 60.849 59.7648 61.3669 59.2722L68.7875 63.6935Z" fill="url(#paint0_linear_7_284)"/>
<path d="M260.642 29H275.622C276.532 29 277.384 29.105 278.177 29.315C278.971 29.525 279.682 29.8167 280.312 30.19C280.942 30.5633 281.456 31.0067 281.852 31.52C282.272 32.01 282.529 32.535 282.622 33.095H283.077L282.762 22H285.982V50H282.762L283.077 44.82H282.622C282.529 45.4033 282.272 45.9983 281.852 46.605C281.456 47.2117 280.942 47.7717 280.312 48.285C279.682 48.775 278.971 49.1833 278.177 49.51C277.384 49.8367 276.532 50 275.622 50H260.642C259.569 50 258.554 49.8017 257.597 49.405C256.641 48.985 255.801 48.425 255.077 47.725C254.377 47.0017 253.817 46.1617 253.397 45.205C253.001 44.2483 252.802 43.2333 252.802 42.16V36.84C252.802 35.7433 253.001 34.7283 253.397 33.795C253.817 32.8383 254.377 32.01 255.077 31.31C255.801 30.5867 256.641 30.0267 257.597 29.63C258.554 29.21 259.569 29 260.642 29ZM256.022 37.925V41.145C256.022 41.985 256.162 42.755 256.442 43.455C256.746 44.155 257.154 44.75 257.667 45.24C258.181 45.73 258.799 46.115 259.522 46.395C260.246 46.6517 261.039 46.78 261.902 46.78H278.177C278.714 46.78 279.251 46.6283 279.787 46.325C280.324 46.0217 280.802 45.625 281.222 45.135C281.666 44.645 282.027 44.085 282.307 43.455C282.587 42.8017 282.739 42.1483 282.762 41.495V37.085C282.739 36.1983 282.587 35.4517 282.307 34.845C282.051 34.215 281.689 33.7133 281.222 33.34C280.779 32.9433 280.266 32.6633 279.682 32.5C279.099 32.3133 278.469 32.22 277.792 32.22H261.902C260.106 32.22 258.671 32.7217 257.597 33.725C256.547 34.7283 256.022 36.1283 256.022 37.925Z" fill="white"/>
<path d="M246.266 37.995C246.266 36.245 245.729 34.845 244.656 33.795C243.582 32.745 242.147 32.22 240.351 32.22H230.026C229.232 32.22 228.451 32.29 227.681 32.43C226.934 32.5467 226.234 32.7683 225.581 33.095C224.927 33.3983 224.356 33.83 223.866 34.39C223.376 34.9267 223.002 35.615 222.746 36.455V50H219.526V29H222.746L222.431 33.095H222.886C223.049 32.465 223.341 31.905 223.761 31.415C224.204 30.9017 224.741 30.47 225.371 30.12C226.001 29.7467 226.712 29.4667 227.506 29.28C228.299 29.0933 229.151 29 230.061 29H241.646C242.742 29 243.757 29.21 244.691 29.63C245.647 30.0267 246.476 30.575 247.176 31.275C247.899 31.975 248.459 32.8033 248.856 33.76C249.276 34.7167 249.486 35.7433 249.486 36.84V50H246.266V37.995Z" fill="white"/>
<path d="M187.353 40.515C187.399 41.3317 187.551 42.1367 187.808 42.93C188.088 43.7233 188.449 44.435 188.893 45.065C189.359 45.695 189.908 46.2083 190.538 46.605C191.168 46.9783 191.844 47.165 192.568 47.165H207.723C209.403 47.165 210.978 47.0367 212.448 46.78C213.941 46.5 215.178 45.94 216.158 45.1V48.075C215.294 48.7517 214.256 49.2417 213.043 49.545C211.853 49.8483 210.628 50 209.368 50H191.308C190.164 50 189.138 49.72 188.228 49.16C187.318 48.5767 186.548 47.8417 185.918 46.955C185.288 46.0683 184.798 45.0883 184.448 44.015C184.121 42.9183 183.958 41.8567 183.958 40.83V37.435C183.958 36.105 184.121 34.9267 184.448 33.9C184.798 32.85 185.253 31.9633 185.813 31.24C186.396 30.5167 187.084 29.9683 187.878 29.595C188.671 29.1983 189.523 29 190.433 29H209.683C210.313 29 211.001 29.105 211.748 29.315C212.494 29.525 213.194 29.8517 213.848 30.295C214.501 30.7383 215.049 31.2983 215.493 31.975C215.936 32.6517 216.158 33.4567 216.158 34.39V35.86C216.158 37.26 215.656 38.3917 214.653 39.255C213.649 40.095 212.028 40.515 209.788 40.515H187.353ZM187.283 37.75H208.878C209.041 37.75 209.344 37.7383 209.788 37.715C210.231 37.6917 210.674 37.5983 211.118 37.435C211.584 37.2717 211.993 37.015 212.343 36.665C212.716 36.2917 212.903 35.7667 212.903 35.09C212.903 34.11 212.518 33.3167 211.748 32.71C211.001 32.1033 210.033 31.8 208.843 31.8H191.833C191.459 31.8 191.016 31.8817 190.503 32.045C190.013 32.185 189.534 32.4767 189.068 32.92C188.601 33.3633 188.193 33.97 187.843 34.74C187.516 35.51 187.329 36.5133 187.283 37.75Z" fill="white"/>
<path d="M180.642 32.22H168.042C167.389 32.22 166.7 32.3133 165.977 32.5C165.254 32.6633 164.565 32.9317 163.912 33.305C163.282 33.655 162.722 34.0983 162.232 34.635C161.742 35.1483 161.38 35.755 161.147 36.455V50H157.927V29H161.147L160.832 33.515H161.287C161.45 32.9317 161.73 32.3717 162.127 31.835C162.547 31.275 163.06 30.785 163.667 30.365C164.297 29.945 164.997 29.6183 165.767 29.385C166.537 29.1283 167.377 29 168.287 29H180.642V32.22Z" fill="white"/>
<path d="M154.6 24.7998V28.0198H139.34V49.9998H136.12V28.0198H121V24.7998H154.6Z" fill="white"/>
<path d="M435.232 94H425.182L418.032 83.6H396.682V94H388.432V58H424.632C426.198 58 427.648 58.2833 428.982 58.85C430.348 59.4167 431.532 60.1667 432.532 61.1C433.565 62.0333 434.365 63.1167 434.932 64.35C435.532 65.55 435.832 66.7833 435.832 68.05V73.3C435.832 74.3667 435.598 75.45 435.132 76.55C434.698 77.65 434.098 78.6667 433.332 79.6C432.598 80.5333 431.732 81.3333 430.732 82C429.765 82.6333 428.765 83.05 427.732 83.25L435.232 94ZM427.582 71.3V70.1C427.582 69.0333 427.148 68.1333 426.282 67.4C425.415 66.6333 424.265 66.25 422.832 66.25H396.682V75.35H422.832C424.498 75.35 425.698 74.9333 426.432 74.1C427.198 73.2333 427.582 72.3 427.582 71.3Z" fill="url(#paint1_linear_7_284)"/>
<path d="M337.426 58H382.676V66.25H345.676V71.9H381.476V80.1H345.676V85.75H382.676V94H337.426V58Z" fill="url(#paint2_linear_7_284)"/>
<path d="M323.41 71.6C323.41 70.9 323.276 70.2333 323.01 69.6C322.776 68.9333 322.41 68.3667 321.91 67.9C321.443 67.4 320.86 67 320.16 66.7C319.493 66.4 318.71 66.25 317.81 66.25H296.91C295.21 66.25 293.776 66.8 292.61 67.9C291.476 69 290.91 70.4667 290.91 72.3V79.85C290.91 80.7167 291.06 81.5167 291.36 82.25C291.693 82.95 292.126 83.5667 292.66 84.1C293.193 84.6333 293.826 85.05 294.56 85.35C295.293 85.6167 296.076 85.75 296.91 85.75H317.81C318.51 85.75 319.193 85.6167 319.86 85.35C320.526 85.05 321.126 84.65 321.66 84.15C322.193 83.65 322.61 83.0667 322.91 82.4C323.243 81.7 323.41 80.95 323.41 80.15H331.66V81.15C331.66 82.7167 331.376 84.2667 330.81 85.8C330.243 87.3333 329.443 88.7167 328.41 89.95C327.41 91.15 326.193 92.1333 324.76 92.9C323.326 93.6333 321.743 94 320.01 94H293.86C292.326 94 290.876 93.7167 289.51 93.15C288.143 92.55 286.943 91.75 285.91 90.75C284.91 89.7167 284.11 88.5167 283.51 87.15C282.943 85.7833 282.66 84.3333 282.66 82.8V69.2C282.66 67.6333 282.943 66.1833 283.51 64.85C284.11 63.4833 284.91 62.3 285.91 61.3C286.943 60.2667 288.143 59.4667 289.51 58.9C290.876 58.3 292.326 58 293.86 58H320.01C321.743 58 323.326 58.3833 324.76 59.15C326.193 59.8833 327.41 60.85 328.41 62.05C329.443 63.25 330.243 64.6 330.81 66.1C331.376 67.6 331.66 69.1 331.66 70.6V71.6H323.41Z" fill="url(#paint3_linear_7_284)"/>
<path d="M268.644 71.6C268.644 70.9 268.511 70.2333 268.244 69.6C268.011 68.9333 267.644 68.3667 267.144 67.9C266.677 67.4 266.094 67 265.394 66.7C264.727 66.4 263.944 66.25 263.044 66.25H242.144C240.444 66.25 239.011 66.8 237.844 67.9C236.711 69 236.144 70.4667 236.144 72.3V79.85C236.144 80.7167 236.294 81.5167 236.594 82.25C236.927 82.95 237.361 83.5667 237.894 84.1C238.427 84.6333 239.061 85.05 239.794 85.35C240.527 85.6167 241.311 85.75 242.144 85.75H263.044C263.744 85.75 264.427 85.6167 265.094 85.35C265.761 85.05 266.361 84.65 266.894 84.15C267.427 83.65 267.844 83.0667 268.144 82.4C268.477 81.7 268.644 80.95 268.644 80.15H276.894V81.15C276.894 82.7167 276.611 84.2667 276.044 85.8C275.477 87.3333 274.677 88.7167 273.644 89.95C272.644 91.15 271.427 92.1333 269.994 92.9C268.561 93.6333 266.977 94 265.244 94H239.094C237.561 94 236.111 93.7167 234.744 93.15C233.377 92.55 232.177 91.75 231.144 90.75C230.144 89.7167 229.344 88.5167 228.744 87.15C228.177 85.7833 227.894 84.3333 227.894 82.8V69.2C227.894 67.6333 228.177 66.1833 228.744 64.85C229.344 63.4833 230.144 62.3 231.144 61.3C232.177 60.2667 233.377 59.4667 234.744 58.9C236.111 58.3 237.561 58 239.094 58H265.244C266.977 58 268.561 58.3833 269.994 59.15C271.427 59.8833 272.644 60.85 273.644 62.05C274.677 63.25 275.477 64.6 276.044 66.1C276.611 67.6 276.894 69.1 276.894 70.6V71.6H268.644Z" fill="url(#paint4_linear_7_284)"/>
<path d="M210.989 94H185.89C184.356 94 182.906 93.7167 181.54 93.15C180.206 92.55 179.023 91.75 177.99 90.75C176.99 89.7167 176.189 88.5333 175.589 87.2C175.023 85.8333 174.74 84.3833 174.74 82.85V69.15C174.74 67.6167 175.023 66.1833 175.589 64.85C176.189 63.4833 176.99 62.3 177.99 61.3C179.023 60.2667 180.206 59.4667 181.54 58.9C182.906 58.3 184.356 58 185.89 58H210.989C212.523 58 213.956 58.3 215.289 58.9C216.656 59.4667 217.84 60.2667 218.84 61.3C219.873 62.3 220.673 63.4833 221.24 64.85C221.84 66.1833 222.14 67.6167 222.14 69.15V82.85C222.14 84.3833 221.84 85.8333 221.24 87.2C220.673 88.5333 219.873 89.7167 218.84 90.75C217.84 91.75 216.656 92.55 215.289 93.15C213.956 93.7167 212.523 94 210.989 94ZM213.89 79.85V72.2C213.89 71.4 213.74 70.65 213.44 69.95C213.173 69.2167 212.773 68.5833 212.239 68.05C211.739 67.4833 211.139 67.05 210.439 66.75C209.739 66.4167 208.956 66.25 208.089 66.25H188.989C188.156 66.25 187.373 66.4 186.64 66.7C185.906 67 185.256 67.4167 184.689 67.95C184.156 68.45 183.739 69.0667 183.439 69.8C183.139 70.5 182.989 71.2833 182.989 72.15V79.9C182.989 80.7 183.123 81.4667 183.389 82.2C183.689 82.9 184.106 83.5167 184.639 84.05C185.173 84.55 185.79 84.9667 186.49 85.3C187.223 85.6 188.023 85.75 188.889 85.75H207.939C208.839 85.75 209.64 85.6 210.339 85.3C211.073 84.9667 211.706 84.5333 212.239 84C212.773 83.4667 213.173 82.85 213.44 82.15C213.74 81.4167 213.89 80.65 213.89 79.85Z" fill="url(#paint5_linear_7_284)"/>
<path d="M161.75 70.6C161.75 70.0667 161.633 69.55 161.4 69.05C161.167 68.5167 160.817 68.05 160.35 67.65C159.917 67.2167 159.35 66.8833 158.65 66.65C157.95 66.3833 157.117 66.25 156.15 66.25H133.3C132.133 66.25 131.117 66.55 130.25 67.15C129.417 67.7167 129 68.5833 129 69.75C129 70.5833 129.383 71.2333 130.15 71.7C130.917 72.1333 132.017 72.35 133.45 72.35H158.65C160.25 72.35 161.733 72.5833 163.1 73.05C164.467 73.5167 165.667 74.2 166.7 75.1C167.733 75.9667 168.533 77.05 169.1 78.35C169.7 79.65 170 81.1333 170 82.8C170 84.3333 169.7 85.7833 169.1 87.15C168.533 88.5167 167.733 89.7167 166.7 90.75C165.7 91.75 164.517 92.55 163.15 93.15C161.817 93.7167 160.367 94 158.8 94H132.65C130.917 94 129.333 93.6333 127.9 92.9C126.5 92.1333 125.283 91.15 124.25 89.95C123.217 88.75 122.417 87.4 121.85 85.9C121.283 84.4 121 82.9 121 81.4H129.25C129.25 81.9 129.35 82.4167 129.55 82.95C129.783 83.45 130.117 83.9167 130.55 84.35C131.017 84.75 131.6 85.0833 132.3 85.35C133.033 85.6167 133.9 85.75 134.9 85.75H157.25C157.883 85.75 158.483 85.6667 159.05 85.5C159.617 85.3 160.1 85.05 160.5 84.75C160.933 84.45 161.267 84.1 161.5 83.7C161.767 83.2667 161.9 82.8167 161.9 82.35C161.9 81.3167 161.483 80.65 160.65 80.35C159.817 80.05 158.683 79.9 157.25 79.9H132.6C131.067 79.9 129.583 79.6667 128.15 79.2C126.75 78.7 125.517 78 124.45 77.1C123.417 76.2 122.583 75.0833 121.95 73.75C121.317 72.4167 121 70.9 121 69.2C121 67.6333 121.283 66.1833 121.85 64.85C122.45 63.4833 123.25 62.3 124.25 61.3C125.283 60.2667 126.483 59.4667 127.85 58.9C129.217 58.3 130.667 58 132.2 58H158.35C160.083 58 161.667 58.3833 163.1 59.15C164.533 59.8833 165.75 60.85 166.75 62.05C167.783 63.25 168.583 64.6 169.15 66.1C169.717 67.6 170 69.1 170 70.6H161.75Z" fill="url(#paint6_linear_7_284)"/>
<defs>
<linearGradient id="paint0_linear_7_284" x1="32" y1="8" x2="89" y2="108" gradientUnits="userSpaceOnUse">
<stop stop-color="#A3FF4C"/>
<stop offset="1" stop-color="#62F4FF"/>
</linearGradient>
<linearGradient id="paint1_linear_7_284" x1="388.432" y1="76" x2="435.832" y2="76" gradientUnits="userSpaceOnUse">
<stop stop-color="#A3FF4C"/>
<stop offset="1" stop-color="#8FFF7A"/>
</linearGradient>
<linearGradient id="paint2_linear_7_284" x1="337.426" y1="76" x2="382.676" y2="76" gradientUnits="userSpaceOnUse">
<stop stop-color="#A3FF4C"/>
<stop offset="1" stop-color="#8FFF7A"/>
</linearGradient>
<linearGradient id="paint3_linear_7_284" x1="282.66" y1="76" x2="331.66" y2="76" gradientUnits="userSpaceOnUse">
<stop stop-color="#A3FF4C"/>
<stop offset="1" stop-color="#8FFF7A"/>
</linearGradient>
<linearGradient id="paint4_linear_7_284" x1="227.894" y1="76" x2="276.894" y2="76" gradientUnits="userSpaceOnUse">
<stop stop-color="#A3FF4C"/>
<stop offset="1" stop-color="#8FFF7A"/>
</linearGradient>
<linearGradient id="paint5_linear_7_284" x1="174.74" y1="76" x2="222.139" y2="76" gradientUnits="userSpaceOnUse">
<stop stop-color="#A3FF4C"/>
<stop offset="1" stop-color="#8FFF7A"/>
</linearGradient>
<linearGradient id="paint6_linear_7_284" x1="121" y1="76" x2="170" y2="76" gradientUnits="userSpaceOnUse">
<stop stop-color="#A3FF4C"/>
<stop offset="1" stop-color="#8FFF7A"/>
</linearGradient>
</defs>
</svg>
