<svg width="24" height="24" viewBox="0 0 24 24" fill="none" xmlns="http://www.w3.org/2000/svg">
<path d="M5.37778 9.51111H3.55556C3.32222 10.3 3.2 11.1333 3.2 12C3.2 12.8667 3.32222 13.7 3.55556 14.4889H5.37778V9.51111Z" fill="white"/>
<path d="M11.5 12C11.5 11.8 11.6222 11.6222 11.7889 11.5444V9.2C10.3333 9.31111 9.18889 10.5222 9.18889 12C9.18889 13.4778 10.3333 14.6889 11.7889 14.8V12.4556C11.6222 12.3778 11.5 12.2 11.5 12Z" fill="white"/>
<path d="M12.5 12C12.5 12.2 12.3778 12.3778 12.2111 12.4556V14.8C13.6667 14.6889 14.8111 13.4778 14.8111 12C14.8111 10.5222 13.6667 9.31111 12.2111 9.2V11.5444C12.3778 11.6222 12.5 11.8 12.5 12Z" fill="white"/>
<path d="M20.4444 9.51111H18.6222V14.4889H20.4444C20.6778 13.7 20.8 12.8667 20.8 12C20.8 11.1333 20.6778 10.3 20.4444 9.51111Z" fill="white"/>
<path d="M8.75556 12C8.75556 10.2778 10.1 8.86667 11.7889 8.75556V3.2C8.04445 3.28889 4.87778 5.71111 3.7 9.07778H5.82222V14.9222H3.7C4.87778 18.2889 8.04445 20.7111 11.7889 20.8V15.2444C10.1 15.1333 8.75556 13.7222 8.75556 12Z" fill="white"/>
<path d="M18.1889 9.07778H20.3111C19.1333 5.71111 15.9667 3.28889 12.2222 3.2V8.75556C13.9111 8.86667 15.2556 10.2778 15.2556 12C15.2556 13.7222 13.9111 15.1333 12.2222 15.2444V20.8C15.9667 20.7111 19.1333 18.2889 20.3111 14.9222H18.1889V9.07778Z" fill="white"/>
<path d="M12 22C6.48889 22 2 17.5111 2 12C2 6.48889 6.48889 2 12 2C17.5111 2 22 6.48889 22 12C22 17.5111 17.5111 22 12 22ZM12 2.61111C6.82222 2.61111 2.61111 6.82222 2.61111 12C2.61111 17.1778 6.82222 21.3889 12 21.3889C17.1778 21.3889 21.3889 17.1778 21.3889 12C21.3889 6.82222 17.1778 2.61111 12 2.61111Z" fill="white"/>
</svg>
